<mxfile host="app.diagrams.net" modified="2023-10-23T02:50:38.302Z" agent="Mozilla/5.0 (Macintosh; Intel Mac OS X 10_15_7) AppleWebKit/537.36 (KHTML, like Gecko) Chrome/118.0.0.0 Safari/537.36" etag="c7sm4hlu-TXAP8eI91Jh" version="22.0.6" type="github">
  <diagram name="Page-1" id="2c0d36ab-eaac-3732-788b-9136903baeff">
    <mxGraphModel dx="2385" dy="1158" grid="1" gridSize="10" guides="1" tooltips="1" connect="1" arrows="1" fold="1" page="1" pageScale="1.5" pageWidth="1169" pageHeight="827" background="none" math="0" shadow="0">
      <root>
        <mxCell id="0" />
        <mxCell id="1" parent="0" />
        <mxCell id="123" value="" style="fillColor=#AE4132;strokeColor=none;opacity=30;" parent="1" vertex="1">
          <mxGeometry x="747" y="175.50000000000003" width="210" height="99.99999999999994" as="geometry" />
        </mxCell>
        <mxCell id="122" value="" style="fillColor=#10739E;strokeColor=none;opacity=30;" parent="1" vertex="1">
          <mxGeometry x="97" y="325.5" width="1470" height="99.99999999999994" as="geometry" />
        </mxCell>
        <mxCell id="2" value="Home" style="rounded=1;fillColor=#23445D;gradientColor=none;strokeColor=none;fontColor=#FFFFFF;fontStyle=1;fontFamily=Tahoma;fontSize=14" parent="1" vertex="1">
          <mxGeometry x="757" y="185.5" width="190" height="80" as="geometry" />
        </mxCell>
        <mxCell id="zr03rt78xMXZlSB7mQDf-142" style="edgeStyle=orthogonalEdgeStyle;rounded=0;orthogonalLoop=1;jettySize=auto;html=1;exitX=0.25;exitY=1;exitDx=0;exitDy=0;entryX=0;entryY=0.5;entryDx=0;entryDy=0;" edge="1" parent="1" source="4" target="zr03rt78xMXZlSB7mQDf-132">
          <mxGeometry relative="1" as="geometry" />
        </mxCell>
        <mxCell id="zr03rt78xMXZlSB7mQDf-145" style="edgeStyle=orthogonalEdgeStyle;rounded=0;orthogonalLoop=1;jettySize=auto;html=1;exitX=0.25;exitY=1;exitDx=0;exitDy=0;entryX=0;entryY=0.5;entryDx=0;entryDy=0;" edge="1" parent="1" source="4" target="zr03rt78xMXZlSB7mQDf-130">
          <mxGeometry relative="1" as="geometry" />
        </mxCell>
        <mxCell id="zr03rt78xMXZlSB7mQDf-147" style="edgeStyle=orthogonalEdgeStyle;rounded=0;orthogonalLoop=1;jettySize=auto;html=1;exitX=0.25;exitY=1;exitDx=0;exitDy=0;entryX=0;entryY=0.5;entryDx=0;entryDy=0;" edge="1" parent="1" source="4" target="zr03rt78xMXZlSB7mQDf-134">
          <mxGeometry relative="1" as="geometry" />
        </mxCell>
        <mxCell id="zr03rt78xMXZlSB7mQDf-148" style="edgeStyle=orthogonalEdgeStyle;rounded=0;orthogonalLoop=1;jettySize=auto;html=1;exitX=0.25;exitY=1;exitDx=0;exitDy=0;entryX=0;entryY=0.5;entryDx=0;entryDy=0;" edge="1" parent="1" source="4" target="zr03rt78xMXZlSB7mQDf-133">
          <mxGeometry relative="1" as="geometry" />
        </mxCell>
        <mxCell id="zr03rt78xMXZlSB7mQDf-149" style="edgeStyle=orthogonalEdgeStyle;rounded=0;orthogonalLoop=1;jettySize=auto;html=1;exitX=0.25;exitY=1;exitDx=0;exitDy=0;entryX=0;entryY=0.5;entryDx=0;entryDy=0;" edge="1" parent="1" source="4" target="zr03rt78xMXZlSB7mQDf-135">
          <mxGeometry relative="1" as="geometry" />
        </mxCell>
        <mxCell id="zr03rt78xMXZlSB7mQDf-150" style="edgeStyle=orthogonalEdgeStyle;rounded=0;orthogonalLoop=1;jettySize=auto;html=1;exitX=0.25;exitY=1;exitDx=0;exitDy=0;entryX=0;entryY=0.75;entryDx=0;entryDy=0;" edge="1" parent="1" source="4" target="zr03rt78xMXZlSB7mQDf-129">
          <mxGeometry relative="1" as="geometry" />
        </mxCell>
        <mxCell id="4" value="Broker Portal" style="rounded=1;fillColor=#23445D;gradientColor=none;strokeColor=none;fontColor=#FFFFFF;fontStyle=1;fontFamily=Tahoma;fontSize=14" parent="1" vertex="1">
          <mxGeometry x="979.9999999999998" y="335.5" width="190" height="80" as="geometry" />
        </mxCell>
        <mxCell id="9" value="" style="edgeStyle=elbowEdgeStyle;elbow=vertical;strokeWidth=2;rounded=0" parent="1" source="2" target="4" edge="1">
          <mxGeometry x="337" y="215.5" width="100" height="100" as="geometry">
            <mxPoint x="337" y="315.5" as="sourcePoint" />
            <mxPoint x="437" y="215.5" as="targetPoint" />
            <Array as="points">
              <mxPoint x="1075" y="300" />
            </Array>
          </mxGeometry>
        </mxCell>
        <mxCell id="zr03rt78xMXZlSB7mQDf-159" style="edgeStyle=orthogonalEdgeStyle;rounded=0;orthogonalLoop=1;jettySize=auto;html=1;exitX=0.25;exitY=1;exitDx=0;exitDy=0;entryX=0;entryY=0.5;entryDx=0;entryDy=0;" edge="1" parent="1" source="12" target="zr03rt78xMXZlSB7mQDf-155">
          <mxGeometry relative="1" as="geometry" />
        </mxCell>
        <mxCell id="zr03rt78xMXZlSB7mQDf-160" style="edgeStyle=orthogonalEdgeStyle;rounded=0;orthogonalLoop=1;jettySize=auto;html=1;exitX=0.25;exitY=1;exitDx=0;exitDy=0;entryX=0;entryY=0.5;entryDx=0;entryDy=0;" edge="1" parent="1" source="12" target="zr03rt78xMXZlSB7mQDf-154">
          <mxGeometry relative="1" as="geometry" />
        </mxCell>
        <mxCell id="12" value="Dealer Portal" style="rounded=1;fillColor=#23445D;gradientColor=none;strokeColor=none;fontColor=#FFFFFF;fontStyle=1;fontFamily=Tahoma;fontSize=14" parent="1" vertex="1">
          <mxGeometry x="539.9999999999999" y="335.5" width="190" height="80" as="geometry" />
        </mxCell>
        <mxCell id="13" value="Apply" style="rounded=1;fillColor=#23445D;gradientColor=none;strokeColor=none;fontColor=#FFFFFF;fontStyle=1;fontFamily=Tahoma;fontSize=14" parent="1" vertex="1">
          <mxGeometry x="107" y="335.5" width="190" height="80" as="geometry" />
        </mxCell>
        <mxCell id="59" value="" style="edgeStyle=elbowEdgeStyle;elbow=vertical;strokeWidth=2;rounded=0" parent="1" source="2" target="12" edge="1">
          <mxGeometry x="347" y="225.5" width="100" height="100" as="geometry">
            <mxPoint x="861.9999999999999" y="275.5" as="sourcePoint" />
            <mxPoint x="1466.9999999999998" y="345.5" as="targetPoint" />
          </mxGeometry>
        </mxCell>
        <mxCell id="61" value="" style="edgeStyle=elbowEdgeStyle;elbow=vertical;strokeWidth=2;rounded=0" parent="1" source="2" target="13" edge="1">
          <mxGeometry x="-23" y="135.5" width="100" height="100" as="geometry">
            <mxPoint x="-23" y="235.5" as="sourcePoint" />
            <mxPoint x="77" y="135.5" as="targetPoint" />
          </mxGeometry>
        </mxCell>
        <mxCell id="zr03rt78xMXZlSB7mQDf-124" value="Contact Us" style="rounded=1;fillColor=#23445D;gradientColor=none;strokeColor=none;fontColor=#FFFFFF;fontStyle=1;fontFamily=Tahoma;fontSize=14" vertex="1" parent="1">
          <mxGeometry x="1340" y="335.5" width="190" height="80" as="geometry" />
        </mxCell>
        <mxCell id="zr03rt78xMXZlSB7mQDf-128" value="" style="endArrow=classic;html=1;rounded=0;entryX=0.5;entryY=0;entryDx=0;entryDy=0;exitX=0.5;exitY=1;exitDx=0;exitDy=0;strokeWidth=2;" edge="1" parent="1" source="2">
          <mxGeometry width="50" height="50" relative="1" as="geometry">
            <mxPoint x="852" y="275.5" as="sourcePoint" />
            <mxPoint x="1435" y="345.5" as="targetPoint" />
            <Array as="points">
              <mxPoint x="852" y="300" />
              <mxPoint x="1435" y="300" />
            </Array>
          </mxGeometry>
        </mxCell>
        <mxCell id="zr03rt78xMXZlSB7mQDf-129" value="New Applications" style="rounded=0;whiteSpace=wrap;html=1;fillColor=#CC6600;" vertex="1" parent="1">
          <mxGeometry x="1080" y="600" width="120" height="60" as="geometry" />
        </mxCell>
        <mxCell id="zr03rt78xMXZlSB7mQDf-130" value="Approved" style="rounded=0;whiteSpace=wrap;html=1;fillColor=#CC6600;" vertex="1" parent="1">
          <mxGeometry x="1080" y="840" width="120" height="60" as="geometry" />
        </mxCell>
        <mxCell id="zr03rt78xMXZlSB7mQDf-131" value="Application Dashboard" style="rounded=0;whiteSpace=wrap;html=1;fillColor=#CC6600;" vertex="1" parent="1">
          <mxGeometry x="1080" y="480" width="120" height="60" as="geometry" />
        </mxCell>
        <mxCell id="zr03rt78xMXZlSB7mQDf-132" value="Under Process" style="rounded=0;whiteSpace=wrap;html=1;fillColor=#CC6600;" vertex="1" parent="1">
          <mxGeometry x="1080" y="720" width="120" height="60" as="geometry" />
        </mxCell>
        <mxCell id="zr03rt78xMXZlSB7mQDf-133" value="Ready For Closure" style="rounded=0;whiteSpace=wrap;html=1;fillColor=#CC6600;" vertex="1" parent="1">
          <mxGeometry x="1080" y="1080" width="120" height="60" as="geometry" />
        </mxCell>
        <mxCell id="zr03rt78xMXZlSB7mQDf-134" value="Rejected" style="rounded=0;whiteSpace=wrap;html=1;fillColor=#CC6600;" vertex="1" parent="1">
          <mxGeometry x="1080" y="960" width="120" height="60" as="geometry" />
        </mxCell>
        <mxCell id="zr03rt78xMXZlSB7mQDf-135" value="Closed&lt;br&gt;Applications" style="rounded=0;whiteSpace=wrap;html=1;fillColor=#CC6600;" vertex="1" parent="1">
          <mxGeometry x="1080" y="1190" width="120" height="60" as="geometry" />
        </mxCell>
        <mxCell id="zr03rt78xMXZlSB7mQDf-137" value="" style="swimlane;startSize=0;fillColor=#dfd3d3;fillStyle=auto;" vertex="1" parent="1">
          <mxGeometry x="1040" y="460" width="200" height="830" as="geometry" />
        </mxCell>
        <mxCell id="zr03rt78xMXZlSB7mQDf-138" value="" style="endArrow=classic;html=1;rounded=0;exitX=0.25;exitY=1;exitDx=0;exitDy=0;entryX=0;entryY=0.5;entryDx=0;entryDy=0;" edge="1" parent="1" source="4" target="zr03rt78xMXZlSB7mQDf-131">
          <mxGeometry width="50" height="50" relative="1" as="geometry">
            <mxPoint x="720" y="740" as="sourcePoint" />
            <mxPoint x="770" y="690" as="targetPoint" />
            <Array as="points">
              <mxPoint x="1028" y="510" />
            </Array>
          </mxGeometry>
        </mxCell>
        <mxCell id="zr03rt78xMXZlSB7mQDf-154" value="Closed Deals" style="rounded=0;whiteSpace=wrap;html=1;fillColor=#CC6600;" vertex="1" parent="1">
          <mxGeometry x="637" y="590" width="120" height="60" as="geometry" />
        </mxCell>
        <mxCell id="zr03rt78xMXZlSB7mQDf-155" value="Application Dashboard" style="rounded=0;whiteSpace=wrap;html=1;fillColor=#CC6600;" vertex="1" parent="1">
          <mxGeometry x="637" y="480" width="120" height="60" as="geometry" />
        </mxCell>
        <mxCell id="zr03rt78xMXZlSB7mQDf-156" value="" style="swimlane;startSize=0;" vertex="1" parent="1">
          <mxGeometry x="610" y="465" width="200" height="310" as="geometry" />
        </mxCell>
      </root>
    </mxGraphModel>
  </diagram>
</mxfile>
